<?xml version="1.0" encoding="UTF-8"?>
<svg xmlns="http://www.w3.org/2000/svg" xmlns:xlink="http://www.w3.org/1999/xlink" width="576pt" height="512pt" viewBox="0 0 576 512" version="1.1">
<g id="surface1">
<path style=" stroke:none;fill-rule:nonzero;fill:rgb(100%,100%,0%);fill-opacity:1;" d="M 232 237.199219 C 263.800781 222 280.398438 199 280.398438 163.199219 C 280.398438 92.601562 227.800781 75.398438 167.101562 75.398438 L 0 75.398438 L 0 429.800781 L 171.800781 429.800781 C 236.199219 429.800781 296.699219 398.898438 296.699219 326.898438 C 296.699219 282.398438 275.601562 249.5 232 237.199219 Z M 77.898438 135.898438 L 151 135.898438 C 179.101562 135.898438 204.398438 143.800781 204.398438 176.398438 C 204.398438 206.5 184.699219 218.601562 156.898438 218.601562 L 77.898438 218.601562 Z M 161.199219 369.601562 L 77.898438 369.601562 L 77.898438 272 L 162.800781 272 C 197.101562 272 218.800781 286.300781 218.800781 322.601562 C 218.800781 358.398438 192.898438 369.601562 161.199219 369.601562 Z M 519.699219 128.898438 L 376 128.898438 L 376 94 L 519.699219 94 Z M 576 305.199219 C 576 229.300781 531.601562 166 451.101562 166 C 372.898438 166 319.800781 224.800781 319.800781 301.800781 C 319.800781 381.699219 370.101562 436.5 451.101562 436.5 C 512.398438 436.5 552.101562 408.898438 571.199219 350.199219 L 509 350.199219 C 502.300781 372.101562 474.699219 383.699219 453.300781 383.699219 C 412 383.699219 390.300781 359.5 390.300781 318.398438 L 575.398438 318.398438 C 575.699219 314.199219 576 309.699219 576 305.199219 Z M 390.398438 274 C 392.699219 240.300781 415.101562 219.199219 448.898438 219.199219 C 484.300781 219.199219 502.101562 240 505.101562 274 Z M 390.398438 274 "/>
</g>
</svg>
